<?xml version="1.0" encoding="utf-8"?>
<!-- Svg Vector Icons : http://www.onlinewebfonts.com/icon -->
<!DOCTYPE svg PUBLIC "-//W3C//DTD SVG 1.1//EN" "http://www.w3.org/Graphics/SVG/1.1/DTD/svg11.dtd">
<svg version="1.1" xmlns="http://www.w3.org/2000/svg" xmlns:xlink="http://www.w3.org/1999/xlink" x="0px" y="0px" viewBox="0 0 1000 1000" enable-background="new 0 0 1000 1000" xml:space="preserve">
<metadata> Svg Vector Icons : http://www.onlinewebfonts.com/icon </metadata>
<g><g><g><path d="M961.7,454.4l-2.3-1l-371-412.3c-8-8.9-17.1-13.4-27.1-13.4c-21.3,0-41.9,20.9-43.2,43.8l-0.7,3.5c-0.4,1.6-0.8,3.1-1,4.8c-5.4,52.5-6.6,103.8-7,147.1l-0.1,11.8H59.6c-25.1,0-34.6,16.5-37.9,26.3l-0.7,2.2l-1.5,1.7c-6.2,7.1-9.4,16-9.4,26.6v408.8c0,10.5,3.1,19.5,9.3,26.6l1.5,1.8l0.7,2.2c3.4,9.8,12.8,26.3,37.9,26.3h449.8l0.1,11.8c0.4,43.3,1.5,94.6,7,147.1c0.2,1.7,0.6,3.3,1,4.9l0.7,3.6c1.3,22.9,21.9,43.8,43.2,43.8c9.9,0,19-4.5,27.1-13.4l371-412.3l2.3-1c17.4-7.8,29.3-26.7,28.2-44.9l0-0.7l0-0.7C991,481.1,979.1,462.3,961.7,454.4z M595.1,825l-0.5-30.2c-0.4-25.3-0.6-50.7-0.6-76c0-28-21.3-40.6-42.4-40.6v-11.8l-0.3,11.8l-1.5,0l-1.4-0.4c-4.1-1-7.7-1.5-11.3-1.5H94.7v-353h442.5c3.6,0,7.2-0.5,11.2-1.5l1.4-0.3h1.5c21.4,0,42.6-12.5,42.7-40.5c0-25.4,0.2-50.7,0.6-76l0.5-30.2l292.5,325L595.1,825z"/></g></g><g></g><g></g><g></g><g></g><g></g><g></g><g></g><g></g><g></g><g></g><g></g><g></g><g></g><g></g><g></g></g>
</svg>