<svg id="svg" xmlns="http://www.w3.org/2000/svg" xmlns:xlink="http://www.w3.org/1999/xlink" width="400" height="96.05263157894737" viewBox="0, 0, 400,96.05263157894737"><g id="svgg"><path id="path0" d="M235.839 4.094 C 202.870 20.413,209.802 81.510,245.172 86.358 C 252.183 87.319,254.051 83.190,248.684 78.595 C 246.183 76.453,246.053 74.713,246.053 43.445 C 246.053 11.974,246.167 10.477,248.684 8.905 C 258.106 3.021,246.664 -1.264,235.839 4.094 M253.947 4.289 C 253.947 5.924,255.132 8.001,256.579 8.905 C 259.097 10.477,259.211 11.974,259.211 43.445 C 259.211 74.713,259.080 76.453,256.579 78.595 C 252.195 82.348,253.093 86.845,258.224 86.829 C 294.405 86.720,303.175 19.664,269.079 3.819 C 261.315 0.211,253.947 0.440,253.947 4.289 M100.987 13.571 L 89.474 24.381 89.474 53.724 C 89.474 91.631,86.881 88.158,115.178 88.158 L 138.158 88.158 138.157 54.934 L 138.156 21.711 127.726 12.171 C 114.844 0.389,115.037 0.379,100.987 13.571 M296.039 4.622 C 294.675 6.266,294.933 7.123,297.523 9.556 C 300.014 11.895,302.685 20.001,310.526 49.010 L 320.395 85.520 328.347 85.523 L 336.300 85.526 339.918 70.692 L 343.536 55.857 337.488 33.579 L 331.439 11.301 334.346 9.108 C 336.183 7.723,336.950 6.127,336.431 4.774 C 335.249 1.694,298.583 1.556,296.039 4.622 M343.062 17.082 L 339.509 31.532 344.809 51.621 C 347.724 62.670,350.990 74.819,352.065 78.618 L 354.021 85.526 361.728 85.526 L 369.436 85.526 372.972 71.273 L 376.508 57.020 371.084 36.734 C 368.102 25.576,364.785 13.339,363.715 9.539 L 361.769 2.632 354.192 2.632 L 346.615 2.632 343.062 17.082 M371.930 3.509 C 370.179 5.259,371.122 7.487,374.342 9.211 C 378.251 11.303,378.465 14.167,375.550 25.416 C 373.486 33.381,373.793 42.019,376.283 46.015 C 378.140 48.996,378.828 47.487,383.558 30.052 C 387.562 15.293,388.405 13.446,392.850 9.715 C 395.661 7.355,397.347 4.978,396.818 4.121 C 395.825 2.515,373.474 1.965,371.930 3.509 M142.982 4.825 C 142.500 5.307,142.105 19.997,142.105 37.468 L 142.105 69.234 152.533 78.696 C 167.208 92.011,166.048 92.310,190.531 68.901 C 214.937 45.566,215.937 43.029,200.987 42.374 L 192.105 41.985 192.105 25.511 C 192.105 2.380,193.958 3.947,166.620 3.947 C 154.102 3.947,143.465 4.342,142.982 4.825 M3.127 7.186 C 2.214 9.564,3.551 11.842,5.858 11.842 C 8.888 11.842,9.211 15.209,9.211 46.881 L 9.211 77.757 5.767 80.949 C -0.900 87.127,1.656 88.158,23.643 88.158 C 38.149 88.158,43.421 87.737,43.421 86.579 C 43.421 85.351,43.772 85.351,45.000 86.579 C 47.702 89.281,85.382 88.750,86.439 85.995 C 86.991 84.556,86.096 82.976,83.766 81.280 L 80.263 78.728 80.263 45.910 L 80.263 13.093 83.648 11.806 C 85.841 10.972,86.878 9.708,86.591 8.220 C 85.974 5.014,4.348 4.003,3.127 7.186 M50.309 13.816 C 50.840 14.539,51.285 21.201,51.296 28.618 L 51.316 42.105 46.053 42.105 C 41.316 42.105,40.789 42.434,40.789 45.395 C 40.789 48.355,41.316 48.684,46.053 48.684 L 51.316 48.684 51.316 63.785 C 51.316 81.081,49.223 84.882,41.609 81.413 L 38.158 79.841 38.158 46.660 C 38.158 13.777,38.184 13.461,41.098 11.526 C 44.070 9.554,47.872 10.499,50.309 13.816 M127.632 52.253 L 127.632 77.632 113.816 77.632 L 100.000 77.632 100.000 53.657 L 100.000 29.682 107.523 22.080 L 115.045 14.478 121.338 20.676 L 127.632 26.875 127.632 52.253 M181.871 32.566 L 182.237 50.658 186.915 51.814 L 191.593 52.971 179.020 65.231 L 166.447 77.491 159.539 70.698 L 152.632 63.906 152.632 39.190 L 152.632 14.474 167.068 14.474 L 181.505 14.474 181.871 32.566 " stroke="none" fill="#000000" fill-rule="evenodd"></path></g></svg>