<svg id="svg" xmlns="http://www.w3.org/2000/svg" xmlns:xlink="http://www.w3.org/1999/xlink" width="400" height="400" viewBox="0, 0, 400,400"><g id="svgg"><path id="path0" d="M192.625 0.156 C 147.139 4.702,113.339 39.333,112.081 82.681 L 111.927 87.987 142.651 88.056 L 173.375 88.125 174.822 88.709 C 181.351 91.344,181.351 100.656,174.822 103.291 L 173.375 103.875 142.688 103.944 L 112.000 104.013 112.000 112.000 L 112.000 119.987 142.688 120.056 L 173.375 120.125 174.822 120.709 C 181.351 123.344,181.351 132.656,174.822 135.291 L 173.375 135.875 142.688 135.944 L 112.000 136.013 112.000 144.000 L 112.000 151.987 142.688 152.056 L 173.375 152.125 174.822 152.709 C 181.351 155.344,181.351 164.656,174.822 167.291 L 173.375 167.875 142.667 167.944 L 111.959 168.013 112.072 181.319 C 112.203 196.821,112.500 199.692,114.859 208.298 C 126.977 252.513,172.203 279.596,218.290 270.235 C 253.160 263.153,280.455 235.696,286.743 201.375 C 287.744 195.912,287.814 194.723,287.928 181.319 L 288.041 168.013 257.333 167.944 L 226.625 167.875 225.178 167.291 C 218.649 164.656,218.649 155.344,225.178 152.709 L 226.625 152.125 257.313 152.056 L 288.000 151.987 288.000 144.000 L 288.000 136.013 257.313 135.944 L 226.625 135.875 225.178 135.291 C 218.649 132.656,218.649 123.344,225.178 120.709 L 226.625 120.125 257.313 120.056 L 288.000 119.987 288.000 112.000 L 288.000 104.013 257.313 103.944 L 226.625 103.875 225.178 103.291 C 223.252 102.514,221.461 100.719,220.772 98.875 C 219.250 94.809,221.198 90.316,225.178 88.709 L 226.625 88.125 257.349 88.056 L 288.073 87.987 287.919 82.681 C 286.709 40.986,254.722 6.575,211.625 0.605 C 208.765 0.209,195.283 -0.110,192.625 0.156 M77.581 137.409 C 76.245 137.883,74.386 139.518,73.677 140.843 L 73.125 141.875 73.043 165.000 C 72.960 188.380,73.065 192.546,73.907 199.500 C 80.318 252.386,119.837 296.111,171.875 307.897 C 173.938 308.364,175.709 308.747,175.813 308.748 C 175.916 308.749,176.000 318.481,176.000 330.375 L 176.000 352.000 200.000 352.000 L 224.000 352.000 224.000 330.375 C 224.000 318.481,224.084 308.749,224.188 308.748 C 224.291 308.747,226.063 308.364,228.125 307.897 C 280.163 296.111,319.682 252.386,326.093 199.500 C 326.935 192.546,327.040 188.380,326.957 165.000 L 326.875 141.875 326.323 140.843 C 323.637 135.821,316.363 135.821,313.677 140.843 L 313.125 141.875 312.967 166.500 C 312.817 189.940,312.738 192.543,311.996 198.411 C 305.896 246.639,268.566 286.071,220.534 295.024 C 157.214 306.826,96.079 262.259,88.004 198.411 C 87.262 192.543,87.183 189.940,87.033 166.500 L 86.875 141.875 86.323 140.843 C 84.684 137.780,80.820 136.262,77.581 137.409 M118.834 368.369 C 105.511 370.796,96.719 381.526,96.089 396.126 L 95.919 400.069 187.647 399.909 C 238.097 399.820,284.761 399.677,291.343 399.590 L 303.311 399.431 303.181 395.153 C 302.790 382.347,295.112 372.464,282.723 368.819 L 280.375 368.127 200.500 368.085 C 135.723 368.050,120.286 368.104,118.834 368.369 " stroke="none" fill="#000000" fill-rule="evenodd"></path></g></svg>